<svg width="65" height="58" viewBox="0 0 65 58" fill="none" xmlns="http://www.w3.org/2000/svg">
<path d="M36.3052 36.7137C35.6762 39.0612 32.2821 40.1914 28.7244 39.2381C25.1666 38.2848 22.7924 35.609 23.4214 33.2615C24.0504 30.914 27.4445 29.7837 31.0022 30.737C34.56 31.6903 36.9342 34.3662 36.3052 36.7137Z" fill="url(#paint0_linear)"/>
<path d="M39.9629 6.96602C40.1059 6.43255 40.6542 6.11597 41.1877 6.25891L43.2803 6.81962C43.8137 6.96256 44.1303 7.51089 43.9874 8.04436L36.2594 36.8855L32.235 35.8071L39.9629 6.96602Z" fill="url(#paint1_linear)"/>
<path d="M31.1718 17.2061C30.8469 17.4169 30.416 17.1942 30.4001 16.8072L30.2582 13.3532C30.2499 13.1514 30.365 12.9641 30.5478 12.8783C34.7268 10.9172 37.0159 9.46385 40.272 6.45774C40.4985 6.24862 40.8596 6.28806 41.0319 6.54374L42.7468 9.08954C42.9029 9.32136 42.8387 9.63618 42.6042 9.78833L31.1718 17.2061Z" fill="url(#paint2_linear)"/>
<path d="M23.64 3.18214C24.3093 0.845813 27.7223 -0.225824 31.2631 0.788576C34.804 1.80298 37.1318 4.51928 36.4624 6.85561C35.7931 9.19194 32.3801 10.2636 28.8393 9.24918C25.2985 8.23478 22.9707 5.51847 23.64 3.18214Z" fill="url(#paint3_linear)"/>
<path d="M19.4707 32.8624C19.3186 33.3933 18.7649 33.7004 18.234 33.5483L16.1514 32.9517C15.6204 32.7996 15.3133 32.2459 15.4654 31.715L23.6887 3.01115L27.694 4.15861L19.4707 32.8624Z" fill="url(#paint4_linear)"/>
<path d="M28.4368 22.7752C28.7653 22.57 29.1923 22.8001 29.2015 23.1873L29.284 26.6432C29.2888 26.8451 29.1705 27.0305 28.9862 27.1131C24.7741 29.0019 22.4603 30.4157 19.1529 33.3653C18.9229 33.5705 18.5625 33.5248 18.3947 33.2662L16.7239 30.6913C16.5717 30.4568 16.6413 30.1431 16.8784 29.9951L28.4368 22.7752Z" fill="url(#paint5_linear)"/>
<path d="M4.03095 53.9352V45.9792H0.574947V47.3592H2.33895V53.7912C2.33895 55.0992 1.75095 55.7592 0.706947 55.7592C0.634947 55.7592 0.562947 55.7592 0.502947 55.7472L0.454947 57.0192C0.598947 57.0312 0.730947 57.0312 0.874947 57.0312C3.21495 57.0312 4.03095 55.4832 4.03095 53.9352ZM13.1397 54.3792V45.9792H11.4837V53.2272C11.1117 53.3112 10.7157 53.3712 10.3197 53.3712C8.9037 53.3712 7.6677 52.8312 7.6677 51.2472V45.9792H5.9757V51.0912C5.9757 53.7552 7.6797 54.6672 10.2237 54.6672C11.2077 54.6672 12.1917 54.5592 13.1397 54.3792ZM18.0934 53.9352V45.9792H14.6374V47.3592H16.4014V53.7912C16.4014 55.0992 15.8134 55.7592 14.7694 55.7592C14.6974 55.7592 14.6254 55.7592 14.5654 55.7472L14.5174 57.0192C14.6614 57.0312 14.7934 57.0312 14.9374 57.0312C17.2774 57.0312 18.0934 55.4832 18.0934 53.9352ZM27.2022 54.3792V45.9792H25.5462V53.2272C25.1742 53.3112 24.7782 53.3712 24.3822 53.3712C22.9662 53.3712 21.7302 52.8312 21.7302 51.2472V45.9792H20.0382V51.0912C20.0382 53.7552 21.7422 54.6672 24.2862 54.6672C25.2702 54.6672 26.2542 54.5592 27.2022 54.3792ZM35.5192 53.9352V45.9792H32.0632V47.3592H33.8272V53.7912C33.8272 55.0992 33.2392 55.7592 32.1952 55.7592C32.1232 55.7592 32.0512 55.7592 31.9912 55.7472L31.9432 57.0192C32.0872 57.0312 32.2192 57.0312 32.3632 57.0312C34.7032 57.0312 35.5192 55.4832 35.5192 53.9352ZM44.2376 54.4512C43.7336 51.5592 42.9536 48.5472 41.3576 45.9672H39.3536C37.7816 48.4512 36.9656 51.6072 36.4976 54.4512H38.1896C38.2976 53.7312 38.4416 52.9872 38.6216 52.2432H41.9576C42.1496 52.9872 42.2816 53.7312 42.3656 54.4512H44.2376ZM41.7056 50.9592H38.8736C39.2216 49.6392 39.6896 48.3792 40.2776 47.2512H40.3016C40.8896 48.3912 41.3456 49.6632 41.7056 50.9592ZM54.363 54.4512L54.051 45.9792H52.167L50.667 48.8232C50.379 49.3872 50.079 49.9632 49.911 50.3112H49.899C49.779 50.0352 49.479 49.4232 49.143 48.8232L47.523 45.9792H45.651L45.423 54.4512H46.863L46.971 49.5192C46.983 49.0392 46.971 48.3672 46.971 47.9952H46.995C47.115 48.3672 47.451 48.9672 47.727 49.4712L49.047 51.8472H50.439L51.747 49.5192C52.035 49.0152 52.419 48.2472 52.563 47.8992H52.587C52.587 48.2112 52.599 48.9312 52.623 49.5312L52.803 54.4512H54.363ZM61.528 51.9552C61.528 50.5992 60.592 50.0112 59.5 49.5312L58.852 49.2432C58.336 49.0152 57.748 48.7272 57.748 48.1032C57.748 47.6472 58.048 47.0592 59.068 47.0592C59.728 47.0592 60.328 47.2512 60.82 47.5752L61.336 46.2912C60.664 45.9072 59.836 45.7512 59.068 45.7512C57.28 45.7512 56.092 46.8312 56.092 48.2712C56.092 49.6272 56.956 50.2392 58.06 50.7072L58.72 50.9832C59.26 51.2112 59.86 51.4992 59.86 52.1832C59.86 52.9752 59.2 53.3112 58.384 53.3112C57.676 53.3112 56.92 53.0472 56.452 52.7232L55.96 54.0432C56.512 54.3672 57.316 54.6552 58.3 54.6552C59.98 54.6552 61.528 53.8992 61.528 51.9552Z" fill="#E8C82E"/>
<defs>
<linearGradient id="paint0_linear" x1="25.7489" y1="33.712" x2="26.323" y2="0.365152" gradientUnits="userSpaceOnUse">
<stop stop-color="#E8C82E"/>
<stop offset="1" stop-color="#ED7F8B"/>
</linearGradient>
<linearGradient id="paint1_linear" x1="25.7489" y1="33.712" x2="26.323" y2="0.365152" gradientUnits="userSpaceOnUse">
<stop stop-color="#E8C82E"/>
<stop offset="1" stop-color="#ED7F8B"/>
</linearGradient>
<linearGradient id="paint2_linear" x1="25.7489" y1="33.712" x2="26.323" y2="0.365152" gradientUnits="userSpaceOnUse">
<stop stop-color="#E8C82E"/>
<stop offset="1" stop-color="#ED7F8B"/>
</linearGradient>
<linearGradient id="paint3_linear" x1="25.7489" y1="33.712" x2="26.323" y2="0.365152" gradientUnits="userSpaceOnUse">
<stop stop-color="#E8C82E"/>
<stop offset="1" stop-color="#ED7F8B"/>
</linearGradient>
<linearGradient id="paint4_linear" x1="25.7489" y1="33.712" x2="26.323" y2="0.365152" gradientUnits="userSpaceOnUse">
<stop stop-color="#E8C82E"/>
<stop offset="1" stop-color="#ED7F8B"/>
</linearGradient>
<linearGradient id="paint5_linear" x1="25.7489" y1="33.712" x2="26.323" y2="0.365152" gradientUnits="userSpaceOnUse">
<stop stop-color="#E8C82E"/>
<stop offset="1" stop-color="#ED7F8B"/>
</linearGradient>
</defs>
</svg>
